<svg width="144" height="152" viewBox="0 0 144 152" fill="none" xmlns="http://www.w3.org/2000/svg">
<g filter="url(#filter0_d_1_361)">
<path d="M69.0032 66.565C69.5269 64.9067 71.0652 63.7793 72.8043 63.7793H75.326C78.0204 63.7793 79.9386 66.3968 79.1272 68.9661L74.0913 84.9109C73.5675 86.5692 72.0292 87.6966 70.2901 87.6966H67.7684C65.0741 87.6966 63.1558 85.0791 63.9672 82.5098L69.0032 66.565Z" fill="white" fill-opacity="0.07"/>
<path d="M69.0032 66.565C69.5269 64.9067 71.0652 63.7793 72.8043 63.7793H75.326C78.0204 63.7793 79.9386 66.3968 79.1272 68.9661L74.0913 84.9109C73.5675 86.5692 72.0292 87.6966 70.2901 87.6966H67.7684C65.0741 87.6966 63.1558 85.0791 63.9672 82.5098L69.0032 66.565Z" fill="url(#paint0_linear_1_361)"/>
</g>
<defs>
<filter id="filter0_d_1_361" x="-2.28882e-05" y="7.62939e-06" width="143.094" height="151.476" filterUnits="userSpaceOnUse" color-interpolation-filters="sRGB">
<feFlood flood-opacity="0" result="BackgroundImageFix"/>
<feColorMatrix in="SourceAlpha" type="matrix" values="0 0 0 0 0 0 0 0 0 0 0 0 0 0 0 0 0 0 127 0" result="hardAlpha"/>
<feOffset/>
<feGaussianBlur stdDeviation="31.8897"/>
<feColorMatrix type="matrix" values="0 0 0 0 1 0 0 0 0 0.359756 0 0 0 0 0 0 0 0 0.4 0"/>
<feBlend mode="normal" in2="BackgroundImageFix" result="effect1_dropShadow_1_361"/>
<feBlend mode="normal" in="SourceGraphic" in2="effect1_dropShadow_1_361" result="shape"/>
</filter>
<linearGradient id="paint0_linear_1_361" x1="68.8067" y1="63.7793" x2="68.8067" y2="87.6966" gradientUnits="userSpaceOnUse">
<stop stop-color="#A0DBF0"/>
<stop offset="1" stop-color="#00AFED"/>
</linearGradient>
</defs>
</svg>
