<svg xmlns="http://www.w3.org/2000/svg" xmlns:xlink="http://www.w3.org/1999/xlink" width="512" zoomAndPan="magnify" viewBox="0 0 384 383.999986" height="512" preserveAspectRatio="xMidYMid meet" version="1.0"><defs><clipPath id="bb1fc7190e"><path d="M 157 42 L 170 42 L 170 72.921875 L 157 72.921875 Z M 157 42 " clip-rule="nonzero"/></clipPath><clipPath id="5c73706901"><path d="M 90.253906 5 L 138 5 L 138 24 L 90.253906 24 Z M 90.253906 5 " clip-rule="nonzero"/></clipPath><clipPath id="b138ba907a"><path d="M 0 146 L 16 146 L 16 169 L 0 169 Z M 0 146 " clip-rule="nonzero"/></clipPath><clipPath id="3e0182a678"><path d="M -56.871094 205.949219 L 6.890625 94.671875 L 105.800781 151.347656 L 42.042969 262.625 Z M -56.871094 205.949219 " clip-rule="nonzero"/></clipPath><clipPath id="18ca0e61f4"><path d="M -56.871094 205.949219 L 6.890625 94.671875 L 105.800781 151.347656 L 42.042969 262.625 Z M -56.871094 205.949219 " clip-rule="nonzero"/></clipPath><clipPath id="f58e00db2f"><path d="M -56.871094 205.949219 L 6.890625 94.671875 L 105.800781 151.347656 L 42.042969 262.625 Z M -56.871094 205.949219 " clip-rule="nonzero"/></clipPath><clipPath id="7237400dcd"><path d="M 3 149 L 18 149 L 18 162 L 3 162 Z M 3 149 " clip-rule="nonzero"/></clipPath><clipPath id="4cf4cdc736"><path d="M -56.871094 205.949219 L 6.890625 94.671875 L 105.800781 151.347656 L 42.042969 262.625 Z M -56.871094 205.949219 " clip-rule="nonzero"/></clipPath><clipPath id="d5ef4d6025"><path d="M -56.871094 205.949219 L 6.890625 94.671875 L 105.800781 151.347656 L 42.042969 262.625 Z M -56.871094 205.949219 " clip-rule="nonzero"/></clipPath><clipPath id="3ea630b6ae"><path d="M -56.871094 205.949219 L 6.890625 94.671875 L 105.800781 151.347656 L 42.042969 262.625 Z M -56.871094 205.949219 " clip-rule="nonzero"/></clipPath><clipPath id="81d479285c"><path d="M 26 126 L 31 126 L 31 161 L 26 161 Z M 26 126 " clip-rule="nonzero"/></clipPath><clipPath id="1725000070"><path d="M -56.871094 205.949219 L 6.890625 94.671875 L 105.800781 151.347656 L 42.042969 262.625 Z M -56.871094 205.949219 " clip-rule="nonzero"/></clipPath><clipPath id="7c17815e0f"><path d="M -56.871094 205.949219 L 6.890625 94.671875 L 105.800781 151.347656 L 42.042969 262.625 Z M -56.871094 205.949219 " clip-rule="nonzero"/></clipPath><clipPath id="8527545e23"><path d="M -56.871094 205.949219 L 6.890625 94.671875 L 105.800781 151.347656 L 42.042969 262.625 Z M -56.871094 205.949219 " clip-rule="nonzero"/></clipPath><clipPath id="18a3b41ef8"><path d="M 34 146 L 39 146 L 39 159 L 34 159 Z M 34 146 " clip-rule="nonzero"/></clipPath><clipPath id="d8a3667d74"><path d="M -56.871094 205.949219 L 6.890625 94.671875 L 105.800781 151.347656 L 42.042969 262.625 Z M -56.871094 205.949219 " clip-rule="nonzero"/></clipPath><clipPath id="9dd18fbf13"><path d="M -56.871094 205.949219 L 6.890625 94.671875 L 105.800781 151.347656 L 42.042969 262.625 Z M -56.871094 205.949219 " clip-rule="nonzero"/></clipPath><clipPath id="6242e89330"><path d="M -56.871094 205.949219 L 6.890625 94.671875 L 105.800781 151.347656 L 42.042969 262.625 Z M -56.871094 205.949219 " clip-rule="nonzero"/></clipPath><clipPath id="71f4a6873b"><path d="M 42 128 L 57 128 L 57 163 L 42 163 Z M 42 128 " clip-rule="nonzero"/></clipPath><clipPath id="6262700f52"><path d="M -56.871094 205.949219 L 6.890625 94.671875 L 105.800781 151.347656 L 42.042969 262.625 Z M -56.871094 205.949219 " clip-rule="nonzero"/></clipPath><clipPath id="49061b5d66"><path d="M -56.871094 205.949219 L 6.890625 94.671875 L 105.800781 151.347656 L 42.042969 262.625 Z M -56.871094 205.949219 " clip-rule="nonzero"/></clipPath><clipPath id="3fb9740d35"><path d="M -56.871094 205.949219 L 6.890625 94.671875 L 105.800781 151.347656 L 42.042969 262.625 Z M -56.871094 205.949219 " clip-rule="nonzero"/></clipPath><clipPath id="6e58bb793c"><path d="M 49 142 L 90 142 L 90 169 L 49 169 Z M 49 142 " clip-rule="nonzero"/></clipPath><clipPath id="280cef8348"><path d="M -56.871094 205.949219 L 6.890625 94.671875 L 105.800781 151.347656 L 42.042969 262.625 Z M -56.871094 205.949219 " clip-rule="nonzero"/></clipPath><clipPath id="64e16fb402"><path d="M -56.871094 205.949219 L 6.890625 94.671875 L 105.800781 151.347656 L 42.042969 262.625 Z M -56.871094 205.949219 " clip-rule="nonzero"/></clipPath><clipPath id="0e9be691b9"><path d="M -56.871094 205.949219 L 6.890625 94.671875 L 105.800781 151.347656 L 42.042969 262.625 Z M -56.871094 205.949219 " clip-rule="nonzero"/></clipPath><clipPath id="96d5dfd526"><path d="M 52 170 L 64 170 L 64 175 L 52 175 Z M 52 170 " clip-rule="nonzero"/></clipPath><clipPath id="45ebb0e87a"><path d="M -56.871094 205.949219 L 6.890625 94.671875 L 105.800781 151.347656 L 42.042969 262.625 Z M -56.871094 205.949219 " clip-rule="nonzero"/></clipPath><clipPath id="5b10d9d132"><path d="M -56.871094 205.949219 L 6.890625 94.671875 L 105.800781 151.347656 L 42.042969 262.625 Z M -56.871094 205.949219 " clip-rule="nonzero"/></clipPath><clipPath id="338412d978"><path d="M -56.871094 205.949219 L 6.890625 94.671875 L 105.800781 151.347656 L 42.042969 262.625 Z M -56.871094 205.949219 " clip-rule="nonzero"/></clipPath><clipPath id="148cd5a2e8"><path d="M 49 184 L 84 184 L 84 190 L 49 190 Z M 49 184 " clip-rule="nonzero"/></clipPath><clipPath id="6a6ac8f315"><path d="M -56.871094 205.949219 L 6.890625 94.671875 L 105.800781 151.347656 L 42.042969 262.625 Z M -56.871094 205.949219 " clip-rule="nonzero"/></clipPath><clipPath id="1a65b7c7fd"><path d="M -56.871094 205.949219 L 6.890625 94.671875 L 105.800781 151.347656 L 42.042969 262.625 Z M -56.871094 205.949219 " clip-rule="nonzero"/></clipPath><clipPath id="03456d6114"><path d="M -56.871094 205.949219 L 6.890625 94.671875 L 105.800781 151.347656 L 42.042969 262.625 Z M -56.871094 205.949219 " clip-rule="nonzero"/></clipPath><clipPath id="0086b20620"><path d="M 47 188 L 62 188 L 62 197 L 47 197 Z M 47 188 " clip-rule="nonzero"/></clipPath><clipPath id="48240692c5"><path d="M -56.871094 205.949219 L 6.890625 94.671875 L 105.800781 151.347656 L 42.042969 262.625 Z M -56.871094 205.949219 " clip-rule="nonzero"/></clipPath><clipPath id="b2514fd984"><path d="M -56.871094 205.949219 L 6.890625 94.671875 L 105.800781 151.347656 L 42.042969 262.625 Z M -56.871094 205.949219 " clip-rule="nonzero"/></clipPath><clipPath id="c699bc2703"><path d="M -56.871094 205.949219 L 6.890625 94.671875 L 105.800781 151.347656 L 42.042969 262.625 Z M -56.871094 205.949219 " clip-rule="nonzero"/></clipPath><clipPath id="377cb26509"><path d="M 41 193 L 58 193 L 58 229 L 41 229 Z M 41 193 " clip-rule="nonzero"/></clipPath><clipPath id="8998107c50"><path d="M -56.871094 205.949219 L 6.890625 94.671875 L 105.800781 151.347656 L 42.042969 262.625 Z M -56.871094 205.949219 " clip-rule="nonzero"/></clipPath><clipPath id="713bf87324"><path d="M -56.871094 205.949219 L 6.890625 94.671875 L 105.800781 151.347656 L 42.042969 262.625 Z M -56.871094 205.949219 " clip-rule="nonzero"/></clipPath><clipPath id="80e9bf4317"><path d="M -56.871094 205.949219 L 6.890625 94.671875 L 105.800781 151.347656 L 42.042969 262.625 Z M -56.871094 205.949219 " clip-rule="nonzero"/></clipPath><clipPath id="8e5d09c7f1"><path d="M 34 197 L 37 197 L 37 211 L 34 211 Z M 34 197 " clip-rule="nonzero"/></clipPath><clipPath id="760ab4edc2"><path d="M -56.871094 205.949219 L 6.890625 94.671875 L 105.800781 151.347656 L 42.042969 262.625 Z M -56.871094 205.949219 " clip-rule="nonzero"/></clipPath><clipPath id="6dd6d5b1bc"><path d="M -56.871094 205.949219 L 6.890625 94.671875 L 105.800781 151.347656 L 42.042969 262.625 Z M -56.871094 205.949219 " clip-rule="nonzero"/></clipPath><clipPath id="eeb14c82c6"><path d="M -56.871094 205.949219 L 6.890625 94.671875 L 105.800781 151.347656 L 42.042969 262.625 Z M -56.871094 205.949219 " clip-rule="nonzero"/></clipPath><clipPath id="7db1c6751e"><path d="M 10 197 L 28 197 L 28 229 L 10 229 Z M 10 197 " clip-rule="nonzero"/></clipPath><clipPath id="24e505d402"><path d="M -56.871094 205.949219 L 6.890625 94.671875 L 105.800781 151.347656 L 42.042969 262.625 Z M -56.871094 205.949219 " clip-rule="nonzero"/></clipPath><clipPath id="b81ca7e8d3"><path d="M -56.871094 205.949219 L 6.890625 94.671875 L 105.800781 151.347656 L 42.042969 262.625 Z M -56.871094 205.949219 " clip-rule="nonzero"/></clipPath><clipPath id="f111b1b5e4"><path d="M -56.871094 205.949219 L 6.890625 94.671875 L 105.800781 151.347656 L 42.042969 262.625 Z M -56.871094 205.949219 " clip-rule="nonzero"/></clipPath><clipPath id="c0a4439e7e"><path d="M 0 192 L 22 192 L 22 227 L 0 227 Z M 0 192 " clip-rule="nonzero"/></clipPath><clipPath id="ffb39f32b3"><path d="M -56.871094 205.949219 L 6.890625 94.671875 L 105.800781 151.347656 L 42.042969 262.625 Z M -56.871094 205.949219 " clip-rule="nonzero"/></clipPath><clipPath id="27d57e3d4e"><path d="M -56.871094 205.949219 L 6.890625 94.671875 L 105.800781 151.347656 L 42.042969 262.625 Z M -56.871094 205.949219 " clip-rule="nonzero"/></clipPath><clipPath id="a45802d4ca"><path d="M -56.871094 205.949219 L 6.890625 94.671875 L 105.800781 151.347656 L 42.042969 262.625 Z M -56.871094 205.949219 " clip-rule="nonzero"/></clipPath><clipPath id="984b975b7a"><path d="M 0 181 L 12 181 L 12 187 L 0 187 Z M 0 181 " clip-rule="nonzero"/></clipPath><clipPath id="53ee476943"><path d="M -56.871094 205.949219 L 6.890625 94.671875 L 105.800781 151.347656 L 42.042969 262.625 Z M -56.871094 205.949219 " clip-rule="nonzero"/></clipPath><clipPath id="05ff49ac3e"><path d="M -56.871094 205.949219 L 6.890625 94.671875 L 105.800781 151.347656 L 42.042969 262.625 Z M -56.871094 205.949219 " clip-rule="nonzero"/></clipPath><clipPath id="d98fd9ba39"><path d="M -56.871094 205.949219 L 6.890625 94.671875 L 105.800781 151.347656 L 42.042969 262.625 Z M -56.871094 205.949219 " clip-rule="nonzero"/></clipPath><clipPath id="9d43bd064b"><path d="M 0 190 L 9 190 L 9 201 L 0 201 Z M 0 190 " clip-rule="nonzero"/></clipPath><clipPath id="6c01ba4e78"><path d="M -56.871094 205.949219 L 6.890625 94.671875 L 105.800781 151.347656 L 42.042969 262.625 Z M -56.871094 205.949219 " clip-rule="nonzero"/></clipPath><clipPath id="4de76193b6"><path d="M -56.871094 205.949219 L 6.890625 94.671875 L 105.800781 151.347656 L 42.042969 262.625 Z M -56.871094 205.949219 " clip-rule="nonzero"/></clipPath><clipPath id="cbbd867b73"><path d="M -56.871094 205.949219 L 6.890625 94.671875 L 105.800781 151.347656 L 42.042969 262.625 Z M -56.871094 205.949219 " clip-rule="nonzero"/></clipPath><clipPath id="788cc977b6"><path d="M 5 127 L 19 127 L 19 153 L 5 153 Z M 5 127 " clip-rule="nonzero"/></clipPath><clipPath id="f78205a028"><path d="M -56.871094 205.949219 L 6.890625 94.671875 L 105.800781 151.347656 L 42.042969 262.625 Z M -56.871094 205.949219 " clip-rule="nonzero"/></clipPath><clipPath id="967de07298"><path d="M -56.871094 205.949219 L 6.890625 94.671875 L 105.800781 151.347656 L 42.042969 262.625 Z M -56.871094 205.949219 " clip-rule="nonzero"/></clipPath><clipPath id="5cdf4809bf"><path d="M -56.871094 205.949219 L 6.890625 94.671875 L 105.800781 151.347656 L 42.042969 262.625 Z M -56.871094 205.949219 " clip-rule="nonzero"/></clipPath><clipPath id="c9f486e1fc"><path d="M 11 203 L 17 203 L 17 208 L 11 208 Z M 11 203 " clip-rule="nonzero"/></clipPath><clipPath id="ca55810612"><path d="M -56.871094 205.949219 L 6.890625 94.671875 L 105.800781 151.347656 L 42.042969 262.625 Z M -56.871094 205.949219 " clip-rule="nonzero"/></clipPath><clipPath id="ae76d5e6ff"><path d="M -56.871094 205.949219 L 6.890625 94.671875 L 105.800781 151.347656 L 42.042969 262.625 Z M -56.871094 205.949219 " clip-rule="nonzero"/></clipPath><clipPath id="f628c8cbe1"><path d="M -56.871094 205.949219 L 6.890625 94.671875 L 105.800781 151.347656 L 42.042969 262.625 Z M -56.871094 205.949219 " clip-rule="nonzero"/></clipPath><clipPath id="1c3948196d"><path d="M 27 212 L 32 212 L 32 217 L 27 217 Z M 27 212 " clip-rule="nonzero"/></clipPath><clipPath id="37d3f9366c"><path d="M -56.871094 205.949219 L 6.890625 94.671875 L 105.800781 151.347656 L 42.042969 262.625 Z M -56.871094 205.949219 " clip-rule="nonzero"/></clipPath><clipPath id="f7ffe67de3"><path d="M -56.871094 205.949219 L 6.890625 94.671875 L 105.800781 151.347656 L 42.042969 262.625 Z M -56.871094 205.949219 " clip-rule="nonzero"/></clipPath><clipPath id="bb915e5039"><path d="M -56.871094 205.949219 L 6.890625 94.671875 L 105.800781 151.347656 L 42.042969 262.625 Z M -56.871094 205.949219 " clip-rule="nonzero"/></clipPath><clipPath id="5d09043bd6"><path d="M 48 194 L 52 194 L 52 198 L 48 198 Z M 48 194 " clip-rule="nonzero"/></clipPath><clipPath id="8237e43d8b"><path d="M -56.871094 205.949219 L 6.890625 94.671875 L 105.800781 151.347656 L 42.042969 262.625 Z M -56.871094 205.949219 " clip-rule="nonzero"/></clipPath><clipPath id="2a502e55af"><path d="M -56.871094 205.949219 L 6.890625 94.671875 L 105.800781 151.347656 L 42.042969 262.625 Z M -56.871094 205.949219 " clip-rule="nonzero"/></clipPath><clipPath id="8e5fc97655"><path d="M -56.871094 205.949219 L 6.890625 94.671875 L 105.800781 151.347656 L 42.042969 262.625 Z M -56.871094 205.949219 " clip-rule="nonzero"/></clipPath><clipPath id="b3a369f0ab"><path d="M 55 179 L 57 179 L 57 182 L 55 182 Z M 55 179 " clip-rule="nonzero"/></clipPath><clipPath id="ad4db2d6a9"><path d="M -56.871094 205.949219 L 6.890625 94.671875 L 105.800781 151.347656 L 42.042969 262.625 Z M -56.871094 205.949219 " clip-rule="nonzero"/></clipPath><clipPath id="c4d42d72ba"><path d="M -56.871094 205.949219 L 6.890625 94.671875 L 105.800781 151.347656 L 42.042969 262.625 Z M -56.871094 205.949219 " clip-rule="nonzero"/></clipPath><clipPath id="7024f049af"><path d="M -56.871094 205.949219 L 6.890625 94.671875 L 105.800781 151.347656 L 42.042969 262.625 Z M -56.871094 205.949219 " clip-rule="nonzero"/></clipPath><clipPath id="86a2de0846"><path d="M 27 188 L 31 188 L 31 192 L 27 192 Z M 27 188 " clip-rule="nonzero"/></clipPath><clipPath id="311b2af05f"><path d="M -56.871094 205.949219 L 6.890625 94.671875 L 105.800781 151.347656 L 42.042969 262.625 Z M -56.871094 205.949219 " clip-rule="nonzero"/></clipPath><clipPath id="14d39fdb75"><path d="M -56.871094 205.949219 L 6.890625 94.671875 L 105.800781 151.347656 L 42.042969 262.625 Z M -56.871094 205.949219 " clip-rule="nonzero"/></clipPath><clipPath id="46b2bedcaa"><path d="M -56.871094 205.949219 L 6.890625 94.671875 L 105.800781 151.347656 L 42.042969 262.625 Z M -56.871094 205.949219 " clip-rule="nonzero"/></clipPath><clipPath id="d5f72e39cb"><path d="M 31 160 L 34 160 L 34 163 L 31 163 Z M 31 160 " clip-rule="nonzero"/></clipPath><clipPath id="df4184b0a8"><path d="M -56.871094 205.949219 L 6.890625 94.671875 L 105.800781 151.347656 L 42.042969 262.625 Z M -56.871094 205.949219 " clip-rule="nonzero"/></clipPath><clipPath id="51d23ea149"><path d="M -56.871094 205.949219 L 6.890625 94.671875 L 105.800781 151.347656 L 42.042969 262.625 Z M -56.871094 205.949219 " clip-rule="nonzero"/></clipPath><clipPath id="426adbae7d"><path d="M -56.871094 205.949219 L 6.890625 94.671875 L 105.800781 151.347656 L 42.042969 262.625 Z M -56.871094 205.949219 " clip-rule="nonzero"/></clipPath><clipPath id="b47afb4528"><path d="M 17 168 L 20 168 L 20 172 L 17 172 Z M 17 168 " clip-rule="nonzero"/></clipPath><clipPath id="600f48be12"><path d="M -56.871094 205.949219 L 6.890625 94.671875 L 105.800781 151.347656 L 42.042969 262.625 Z M -56.871094 205.949219 " clip-rule="nonzero"/></clipPath><clipPath id="96923ab2a0"><path d="M -56.871094 205.949219 L 6.890625 94.671875 L 105.800781 151.347656 L 42.042969 262.625 Z M -56.871094 205.949219 " clip-rule="nonzero"/></clipPath><clipPath id="26e79124e8"><path d="M -56.871094 205.949219 L 6.890625 94.671875 L 105.800781 151.347656 L 42.042969 262.625 Z M -56.871094 205.949219 " clip-rule="nonzero"/></clipPath><clipPath id="ed198a23ba"><path d="M 36 139 L 41 139 L 41 143 L 36 143 Z M 36 139 " clip-rule="nonzero"/></clipPath><clipPath id="f889b83d96"><path d="M -56.871094 205.949219 L 6.890625 94.671875 L 105.800781 151.347656 L 42.042969 262.625 Z M -56.871094 205.949219 " clip-rule="nonzero"/></clipPath><clipPath id="341581c70c"><path d="M -56.871094 205.949219 L 6.890625 94.671875 L 105.800781 151.347656 L 42.042969 262.625 Z M -56.871094 205.949219 " clip-rule="nonzero"/></clipPath><clipPath id="42a15a26c3"><path d="M -56.871094 205.949219 L 6.890625 94.671875 L 105.800781 151.347656 L 42.042969 262.625 Z M -56.871094 205.949219 " clip-rule="nonzero"/></clipPath><clipPath id="73956c8e38"><path d="M 3 171 L 7 171 L 7 175 L 3 175 Z M 3 171 " clip-rule="nonzero"/></clipPath><clipPath id="9d626c0c3a"><path d="M -56.871094 205.949219 L 6.890625 94.671875 L 105.800781 151.347656 L 42.042969 262.625 Z M -56.871094 205.949219 " clip-rule="nonzero"/></clipPath><clipPath id="a5ccd90bd3"><path d="M -56.871094 205.949219 L 6.890625 94.671875 L 105.800781 151.347656 L 42.042969 262.625 Z M -56.871094 205.949219 " clip-rule="nonzero"/></clipPath><clipPath id="f9a05330de"><path d="M -56.871094 205.949219 L 6.890625 94.671875 L 105.800781 151.347656 L 42.042969 262.625 Z M -56.871094 205.949219 " clip-rule="nonzero"/></clipPath><clipPath id="9be70ebabf"><path d="M 3 142 L 6 142 L 6 146 L 3 146 Z M 3 142 " clip-rule="nonzero"/></clipPath><clipPath id="99a5ddf710"><path d="M -56.871094 205.949219 L 6.890625 94.671875 L 105.800781 151.347656 L 42.042969 262.625 Z M -56.871094 205.949219 " clip-rule="nonzero"/></clipPath><clipPath id="0d98b16926"><path d="M -56.871094 205.949219 L 6.890625 94.671875 L 105.800781 151.347656 L 42.042969 262.625 Z M -56.871094 205.949219 " clip-rule="nonzero"/></clipPath><clipPath id="68cafd07c7"><path d="M -56.871094 205.949219 L 6.890625 94.671875 L 105.800781 151.347656 L 42.042969 262.625 Z M -56.871094 205.949219 " clip-rule="nonzero"/></clipPath></defs><path fill="#ffcc00" d="M 153.109375 -17.976562 C 153.109375 -17.945312 153.109375 -17.914062 153.109375 -17.882812 C 153.109375 -17.449219 153.109375 -17.015625 153.109375 -16.578125 C 153.109375 -13.820312 153.109375 -11.058594 153.109375 -8.300781 C 153.109375 -7.96875 153.109375 -7.632812 153.109375 -7.300781 C 153.109375 -7.269531 153.109375 -7.246094 153.109375 -7.214844 C 153.109375 -5.800781 153.625 7.261719 154.179688 7.261719 C 154.734375 7.261719 155.253906 -5.800781 155.253906 -7.214844 C 155.253906 -7.246094 155.25 -7.269531 155.25 -7.300781 C 155.25 -7.632812 155.25 -7.96875 155.25 -8.300781 C 155.25 -8.300781 155.253906 -8.300781 155.257812 -8.300781 C 155.257812 -11.058594 155.257812 -13.820312 155.257812 -16.578125 C 155.253906 -16.578125 155.25 -16.578125 155.25 -16.578125 C 155.25 -17.015625 155.25 -17.449219 155.25 -17.882812 C 155.25 -17.914062 155.253906 -17.945312 155.253906 -17.976562 C 155.253906 -19.492188 154.738281 -33.546875 154.179688 -33.546875 C 153.625 -33.546875 153.109375 -19.492188 153.109375 -17.976562 Z M 153.109375 -17.976562 " fill-opacity="1" fill-rule="nonzero"/><path fill="#ffcc00" d="M 161.570312 -4.796875 C 161.570312 -4.785156 161.570312 -4.769531 161.570312 -4.757812 C 161.539062 -4.582031 161.507812 -4.40625 161.480469 -4.230469 C 161.480469 -4.230469 161.476562 -4.230469 161.476562 -4.230469 C 161.285156 -3.113281 161.097656 -2 160.90625 -0.886719 C 160.910156 -0.886719 160.910156 -0.886719 160.914062 -0.886719 C 160.886719 -0.75 160.863281 -0.617188 160.84375 -0.480469 C 160.839844 -0.46875 160.835938 -0.457031 160.832031 -0.445312 C 160.71875 0.21875 160.363281 5.492188 160.898438 5.582031 C 161.433594 5.671875 162.835938 0.574219 162.949219 -0.0898438 C 162.953125 -0.0976562 162.953125 -0.113281 162.953125 -0.121094 C 162.972656 -0.257812 163 -0.390625 163.019531 -0.527344 C 163.023438 -0.527344 163.023438 -0.527344 163.023438 -0.527344 C 163.214844 -1.640625 163.402344 -2.757812 163.59375 -3.871094 C 163.589844 -3.871094 163.589844 -3.871094 163.589844 -3.875 C 163.617188 -4.046875 163.648438 -4.222656 163.675781 -4.398438 C 163.679688 -4.410156 163.6875 -4.421875 163.6875 -4.4375 C 163.808594 -5.136719 164.234375 -10.816406 163.699219 -10.90625 C 163.160156 -11 161.691406 -5.496094 161.570312 -4.796875 Z M 161.570312 -4.796875 " fill-opacity="1" fill-rule="nonzero"/><path fill="#ffcc00" d="M 183.664062 4.273438 C 183.640625 4.28125 183.621094 4.292969 183.597656 4.304688 C 183.292969 4.4375 182.988281 4.566406 182.679688 4.699219 C 180.738281 5.535156 178.796875 6.371094 176.855469 7.210938 C 176.855469 7.210938 176.855469 7.210938 176.855469 7.214844 C 176.617188 7.316406 176.382812 7.417969 176.148438 7.519531 C 176.128906 7.523438 176.109375 7.53125 176.085938 7.539062 C 175.066406 7.984375 166.109375 12.414062 166.328125 12.921875 C 166.546875 13.429688 175.917969 9.949219 176.9375 9.507812 C 176.960938 9.5 176.980469 9.488281 177 9.480469 C 177.234375 9.378906 177.46875 9.277344 177.703125 9.175781 C 177.703125 9.179688 177.707031 9.179688 177.707031 9.179688 C 179.648438 8.34375 181.589844 7.503906 183.53125 6.667969 C 183.53125 6.664062 183.53125 6.660156 183.53125 6.660156 C 183.832031 6.527344 184.140625 6.398438 184.445312 6.261719 C 184.46875 6.257812 184.492188 6.25 184.515625 6.238281 C 185.605469 5.765625 195.269531 1.03125 195.046875 0.523438 C 194.828125 0.0195312 184.753906 3.800781 183.664062 4.273438 Z M 183.664062 4.273438 " fill-opacity="1" fill-rule="nonzero"/><path fill="#ffcc00" d="M 178.15625 15.832031 C 178.148438 15.835938 178.140625 15.839844 178.132812 15.84375 C 178.011719 15.882812 177.890625 15.921875 177.765625 15.964844 C 177.765625 15.964844 177.765625 15.964844 177.765625 15.960938 C 176.996094 16.214844 176.222656 16.46875 175.453125 16.722656 C 175.453125 16.722656 175.453125 16.722656 175.453125 16.726562 C 175.359375 16.753906 175.265625 16.789062 175.175781 16.816406 C 175.164062 16.820312 175.15625 16.820312 175.148438 16.824219 C 174.632812 16.992188 171.269531 18.664062 171.4375 19.171875 C 171.601562 19.675781 175.304688 19.027344 175.820312 18.859375 C 175.828125 18.855469 175.832031 18.851562 175.84375 18.847656 C 175.933594 18.816406 176.027344 18.785156 176.121094 18.753906 C 176.121094 18.753906 176.121094 18.757812 176.121094 18.761719 C 176.898438 18.507812 177.667969 18.25 178.4375 18 C 178.4375 18 178.4375 17.996094 178.4375 17.992188 C 178.558594 17.953125 178.679688 17.914062 178.800781 17.871094 C 178.8125 17.871094 178.820312 17.871094 178.828125 17.867188 C 179.367188 17.691406 183.015625 15.925781 182.847656 15.417969 C 182.679688 14.910156 178.695312 15.65625 178.15625 15.832031 Z M 178.15625 15.832031 " fill-opacity="1" fill-rule="nonzero"/><path fill="#ffcc00" d="M 192.40625 22.808594 C 192.378906 22.8125 192.355469 22.820312 192.328125 22.820312 C 191.96875 22.867188 191.613281 22.914062 191.25 22.960938 C 191.25 22.957031 191.25 22.957031 191.25 22.957031 C 188.972656 23.25 186.695312 23.539062 184.421875 23.832031 C 184.421875 23.832031 184.421875 23.832031 184.421875 23.835938 C 184.144531 23.871094 183.871094 23.902344 183.59375 23.9375 C 183.570312 23.941406 183.546875 23.941406 183.523438 23.945312 C 182.335938 24.097656 171.644531 25.988281 171.714844 26.535156 C 171.785156 27.082031 182.609375 26.222656 183.796875 26.070312 C 183.820312 26.070312 183.84375 26.0625 183.867188 26.058594 C 184.140625 26.023438 184.414062 25.988281 184.695312 25.953125 C 184.695312 25.953125 184.695312 25.957031 184.695312 25.957031 C 186.972656 25.667969 189.25 25.375 191.523438 25.085938 C 191.523438 25.082031 191.523438 25.078125 191.523438 25.078125 C 191.882812 25.03125 192.238281 24.988281 192.601562 24.941406 C 192.625 24.941406 192.652344 24.9375 192.675781 24.9375 C 193.949219 24.773438 205.460938 22.777344 205.394531 22.230469 C 205.320312 21.679688 193.675781 22.648438 192.40625 22.808594 Z M 192.40625 22.808594 " fill-opacity="1" fill-rule="nonzero"/><path fill="#ffcc00" d="M 195.296875 46.675781 C 195.265625 46.660156 195.234375 46.644531 195.203125 46.632812 C 194.777344 46.410156 194.355469 46.1875 193.933594 45.964844 C 191.242188 44.554688 188.550781 43.144531 185.859375 41.734375 C 185.859375 41.738281 185.859375 41.738281 185.859375 41.738281 C 185.53125 41.566406 185.207031 41.394531 184.882812 41.226562 C 184.855469 41.210938 184.828125 41.195312 184.800781 41.179688 C 183.425781 40.460938 170.441406 34.246094 170.183594 34.734375 C 169.925781 35.226562 182.433594 42.359375 183.800781 43.078125 C 183.832031 43.089844 183.859375 43.105469 183.890625 43.117188 C 184.214844 43.289062 184.539062 43.460938 184.863281 43.628906 C 184.863281 43.628906 184.863281 43.632812 184.863281 43.636719 C 187.554688 45.042969 190.246094 46.453125 192.9375 47.863281 C 192.9375 47.863281 192.9375 47.859375 192.9375 47.859375 C 193.359375 48.082031 193.785156 48.300781 194.210938 48.523438 C 194.238281 48.542969 194.269531 48.558594 194.300781 48.578125 C 195.769531 49.347656 209.726562 56.070312 209.984375 55.582031 C 210.242188 55.085938 196.765625 47.445312 195.296875 46.675781 Z M 195.296875 46.675781 " fill-opacity="1" fill-rule="nonzero"/><path fill="#ffcc00" d="M 172.164062 44.015625 C 172.15625 44.011719 172.148438 44.007812 172.144531 44.003906 C 172.058594 43.929688 171.972656 43.863281 171.890625 43.789062 C 171.890625 43.789062 171.890625 43.789062 171.894531 43.789062 C 171.355469 43.335938 170.820312 42.886719 170.28125 42.433594 C 170.28125 42.433594 170.28125 42.433594 170.28125 42.4375 C 170.214844 42.382812 170.152344 42.328125 170.085938 42.273438 C 170.082031 42.265625 170.078125 42.261719 170.070312 42.257812 C 169.691406 41.9375 166.90625 40.308594 166.566406 40.710938 C 166.230469 41.113281 168.308594 43.578125 168.6875 43.898438 C 168.695312 43.902344 168.703125 43.90625 168.707031 43.90625 C 168.773438 43.960938 168.835938 44.015625 168.902344 44.070312 C 168.902344 44.074219 168.898438 44.074219 168.898438 44.074219 C 169.4375 44.527344 169.972656 44.976562 170.507812 45.425781 C 170.507812 45.425781 170.507812 45.425781 170.511719 45.425781 C 170.59375 45.492188 170.679688 45.566406 170.765625 45.636719 C 170.769531 45.644531 170.773438 45.652344 170.78125 45.65625 C 171.175781 45.988281 174.15625 47.785156 174.5 47.382812 C 174.839844 46.976562 172.558594 44.351562 172.164062 44.015625 Z M 172.164062 44.015625 " fill-opacity="1" fill-rule="nonzero"/><g clip-path="url(#bb1fc7190e)"><path fill="#ffcc00" d="M 165.839844 60.859375 C 165.828125 60.835938 165.816406 60.8125 165.808594 60.789062 C 165.671875 60.472656 165.539062 60.152344 165.40625 59.835938 C 165.40625 59.835938 165.410156 59.835938 165.410156 59.835938 C 164.5625 57.816406 163.714844 55.792969 162.871094 53.777344 C 162.867188 53.777344 162.867188 53.777344 162.867188 53.777344 C 162.761719 53.53125 162.660156 53.289062 162.558594 53.042969 C 162.550781 53.019531 162.542969 53 162.535156 52.976562 C 162.089844 51.917969 157.613281 42.582031 157.101562 42.796875 C 156.59375 43.007812 160.113281 52.746094 160.554688 53.808594 C 160.566406 53.828125 160.574219 53.847656 160.585938 53.867188 C 160.6875 54.113281 160.789062 54.355469 160.894531 54.597656 C 160.890625 54.601562 160.886719 54.601562 160.886719 54.601562 C 161.734375 56.625 162.582031 58.644531 163.429688 60.664062 C 163.429688 60.664062 163.433594 60.664062 163.433594 60.664062 C 163.566406 60.980469 163.699219 61.296875 163.832031 61.613281 C 163.84375 61.640625 163.851562 61.664062 163.859375 61.6875 C 164.332031 62.816406 169.117188 72.886719 169.628906 72.671875 C 170.136719 72.457031 166.3125 61.992188 165.839844 60.859375 Z M 165.839844 60.859375 " fill-opacity="1" fill-rule="nonzero"/></g><path fill="#ffcc00" d="M 153.691406 52.398438 C 153.691406 52.382812 153.691406 52.375 153.6875 52.363281 C 153.691406 52.207031 153.691406 52.050781 153.695312 51.894531 C 153.699219 51.894531 153.699219 51.894531 153.699219 51.894531 C 153.71875 50.910156 153.738281 49.921875 153.757812 48.9375 C 153.753906 48.9375 153.753906 48.9375 153.753906 48.9375 C 153.753906 48.816406 153.757812 48.699219 153.757812 48.578125 C 153.761719 48.566406 153.761719 48.558594 153.765625 48.546875 C 153.773438 47.9375 153.328125 43.363281 152.789062 43.351562 C 152.25 43.34375 151.628906 47.894531 151.617188 48.507812 C 151.617188 48.515625 151.617188 48.527344 151.621094 48.539062 C 151.617188 48.65625 151.617188 48.777344 151.613281 48.894531 C 151.613281 48.894531 151.609375 48.894531 151.609375 48.894531 C 151.589844 49.882812 151.570312 50.871094 151.550781 51.855469 C 151.554688 51.855469 151.554688 51.855469 151.558594 51.855469 C 151.554688 52.011719 151.550781 52.164062 151.546875 52.324219 C 151.546875 52.332031 151.542969 52.34375 151.542969 52.355469 C 151.53125 53 151.96875 57.933594 152.507812 57.941406 C 153.050781 57.953125 153.675781 53.039062 153.691406 52.398438 Z M 153.691406 52.398438 " fill-opacity="1" fill-rule="nonzero"/><path fill="#ffcc00" d="M 134.28125 59.34375 C 134.296875 59.320312 134.3125 59.296875 134.328125 59.273438 C 134.542969 58.964844 134.761719 58.65625 134.976562 58.351562 C 134.976562 58.351562 134.976562 58.351562 134.980469 58.351562 C 136.351562 56.398438 137.726562 54.441406 139.097656 52.488281 C 139.265625 52.25 139.429688 52.011719 139.597656 51.777344 C 139.613281 51.761719 139.628906 51.738281 139.640625 51.71875 C 140.355469 50.703125 146.425781 41.167969 145.96875 40.851562 C 145.515625 40.535156 138.597656 49.472656 137.882812 50.488281 C 137.871094 50.507812 137.859375 50.527344 137.84375 50.550781 C 137.679688 50.785156 137.511719 51.023438 137.347656 51.257812 C 137.34375 51.257812 137.34375 51.257812 137.34375 51.257812 C 135.96875 53.210938 134.59375 55.164062 133.21875 57.121094 C 133.222656 57.121094 133.226562 57.121094 133.226562 57.125 C 133.007812 57.429688 132.792969 57.738281 132.578125 58.046875 C 132.558594 58.066406 132.542969 58.089844 132.527344 58.109375 C 131.761719 59.199219 125.199219 69.4375 125.652344 69.753906 C 126.105469 70.074219 133.519531 60.429688 134.28125 59.34375 Z M 134.28125 59.34375 " fill-opacity="1" fill-rule="nonzero"/><path fill="#ffcc00" d="M 134.566406 42.109375 C 134.578125 42.101562 134.582031 42.097656 134.589844 42.089844 C 134.695312 42.019531 134.796875 41.949219 134.898438 41.878906 C 134.898438 41.878906 134.902344 41.878906 134.902344 41.878906 C 135.558594 41.425781 136.21875 40.976562 136.878906 40.527344 C 136.878906 40.527344 136.875 40.523438 136.875 40.523438 C 136.957031 40.46875 137.035156 40.414062 137.117188 40.359375 C 137.125 40.355469 137.128906 40.351562 137.136719 40.347656 C 137.582031 40.046875 140.285156 37.539062 139.984375 37.101562 C 139.683594 36.664062 136.363281 38.277344 135.921875 38.578125 C 135.917969 38.585938 135.910156 38.59375 135.90625 38.597656 C 135.824219 38.65625 135.746094 38.707031 135.664062 38.761719 C 135.664062 38.761719 135.664062 38.757812 135.664062 38.757812 C 135.003906 39.210938 134.347656 39.660156 133.6875 40.109375 C 133.6875 40.113281 133.691406 40.113281 133.691406 40.117188 C 133.585938 40.1875 133.484375 40.257812 133.378906 40.328125 C 133.371094 40.332031 133.359375 40.335938 133.351562 40.339844 C 132.890625 40.65625 129.941406 43.328125 130.246094 43.769531 C 130.546875 44.210938 134.105469 42.425781 134.566406 42.109375 Z M 134.566406 42.109375 " fill-opacity="1" fill-rule="nonzero"/><path fill="#ffcc00" d="M 116.316406 32.453125 C 116.339844 32.453125 116.367188 32.449219 116.390625 32.449219 C 116.746094 32.445312 117.097656 32.4375 117.449219 32.4375 C 119.691406 32.410156 121.925781 32.382812 124.167969 32.355469 C 124.167969 32.355469 124.167969 32.351562 124.167969 32.351562 C 124.4375 32.347656 124.710938 32.34375 124.980469 32.339844 C 125.003906 32.34375 125.027344 32.34375 125.046875 32.34375 C 126.222656 32.328125 136.789062 31.675781 136.785156 31.125 C 136.777344 30.574219 126.195312 30.1875 125.023438 30.199219 C 125 30.199219 124.976562 30.203125 124.953125 30.203125 C 124.683594 30.207031 124.410156 30.210938 124.140625 30.214844 C 124.140625 30.210938 124.140625 30.210938 124.140625 30.210938 C 121.902344 30.238281 119.660156 30.265625 117.421875 30.296875 C 117.421875 30.296875 117.421875 30.296875 117.421875 30.300781 C 117.070312 30.304688 116.71875 30.308594 116.363281 30.3125 C 116.339844 30.3125 116.3125 30.308594 116.289062 30.308594 C 115.035156 30.324219 103.65625 30.988281 103.664062 31.539062 C 103.671875 32.09375 115.0625 32.46875 116.316406 32.453125 Z M 116.316406 32.453125 " fill-opacity="1" fill-rule="nonzero"/><g clip-path="url(#5c73706901)"><path fill="#ffcc00" d="M 108.0625 13.117188 C 108.097656 13.132812 108.136719 13.144531 108.171875 13.15625 C 108.675781 13.347656 109.175781 13.539062 109.679688 13.730469 C 109.679688 13.730469 109.675781 13.730469 109.675781 13.730469 C 112.867188 14.945312 116.058594 16.15625 119.246094 17.367188 C 119.25 17.367188 119.25 17.367188 119.25 17.367188 C 119.632812 17.511719 120.019531 17.660156 120.40625 17.804688 C 120.4375 17.820312 120.472656 17.832031 120.503906 17.847656 C 122.121094 18.460938 137.421875 23.71875 137.617188 23.203125 C 137.816406 22.6875 122.878906 16.457031 121.269531 15.84375 C 121.234375 15.832031 121.199219 15.820312 121.167969 15.808594 C 120.78125 15.664062 120.394531 15.515625 120.011719 15.367188 C 120.011719 15.367188 120.011719 15.367188 120.011719 15.363281 C 116.820312 14.152344 113.632812 12.941406 110.441406 11.726562 C 110.441406 11.730469 110.441406 11.730469 110.441406 11.730469 C 109.9375 11.542969 109.4375 11.351562 108.933594 11.160156 C 108.898438 11.144531 108.863281 11.128906 108.824219 11.113281 C 107.09375 10.457031 90.640625 4.757812 90.441406 5.277344 C 90.246094 5.796875 106.332031 12.460938 108.0625 13.117188 Z M 108.0625 13.117188 " fill-opacity="1" fill-rule="nonzero"/></g><path fill="#ffcc00" d="M 125.777344 -9.371094 C 125.800781 -9.347656 125.816406 -9.320312 125.839844 -9.296875 C 126.097656 -8.945312 126.359375 -8.59375 126.617188 -8.242188 C 126.617188 -8.242188 126.617188 -8.238281 126.617188 -8.238281 C 128.273438 -6 129.925781 -3.765625 131.582031 -1.527344 C 131.585938 -1.53125 131.585938 -1.53125 131.585938 -1.53125 C 131.785156 -1.261719 131.984375 -0.988281 132.1875 -0.71875 C 132.203125 -0.695312 132.21875 -0.671875 132.234375 -0.648438 C 133.082031 0.5 141.335938 10.777344 141.78125 10.449219 C 142.226562 10.121094 134.8125 -0.773438 133.960938 -1.921875 C 133.941406 -1.945312 133.925781 -1.96875 133.90625 -1.988281 C 133.707031 -2.257812 133.503906 -2.53125 133.304688 -2.800781 C 133.308594 -2.800781 133.308594 -2.800781 133.308594 -2.800781 C 131.65625 -5.039062 130 -7.277344 128.34375 -9.511719 C 128.34375 -9.511719 128.339844 -9.511719 128.339844 -9.511719 C 128.078125 -9.863281 127.820312 -10.214844 127.558594 -10.566406 C 127.542969 -10.59375 127.523438 -10.621094 127.503906 -10.648438 C 126.597656 -11.875 117.75 -22.960938 117.300781 -22.632812 C 116.855469 -22.300781 124.871094 -10.601562 125.777344 -9.371094 Z M 125.777344 -9.371094 " fill-opacity="1" fill-rule="nonzero"/><path fill="#ffcc00" d="M 123.011719 7.484375 C 123.023438 7.492188 123.039062 7.5 123.050781 7.507812 C 123.226562 7.605469 123.398438 7.707031 123.574219 7.808594 C 123.570312 7.8125 123.570312 7.8125 123.570312 7.8125 C 124.679688 8.460938 125.789062 9.105469 126.898438 9.75 C 127.03125 9.828125 127.164062 9.90625 127.300781 9.984375 C 127.308594 9.992188 127.320312 10 127.332031 10.007812 C 127.96875 10.378906 133.40625 12.941406 133.683594 12.472656 C 133.957031 12 129.058594 8.53125 128.414062 8.15625 C 128.402344 8.148438 128.390625 8.144531 128.378906 8.140625 C 128.242188 8.058594 128.109375 7.984375 127.976562 7.90625 C 127.976562 7.902344 127.976562 7.902344 127.976562 7.902344 C 126.871094 7.253906 125.765625 6.605469 124.65625 5.960938 C 124.652344 5.960938 124.652344 5.964844 124.652344 5.96875 C 124.476562 5.867188 124.304688 5.761719 124.128906 5.660156 C 124.121094 5.652344 124.105469 5.640625 124.09375 5.632812 C 123.421875 5.242188 117.578125 2.441406 117.300781 2.914062 C 117.027344 3.386719 122.332031 7.089844 123.011719 7.484375 Z M 123.011719 7.484375 " fill-opacity="1" fill-rule="nonzero"/><path fill="#ffcc00" d="M 176.40625 -11.550781 C 176.390625 -11.535156 176.382812 -11.515625 176.375 -11.496094 C 176.222656 -11.261719 176.070312 -11.023438 175.914062 -10.78125 C 175.914062 -10.785156 175.914062 -10.785156 175.910156 -10.785156 C 174.941406 -9.273438 173.96875 -7.761719 173 -6.25 C 173 -6.25 173 -6.246094 173 -6.246094 C 172.882812 -6.066406 172.765625 -5.882812 172.648438 -5.699219 C 172.636719 -5.683594 172.625 -5.667969 172.617188 -5.652344 C 172.09375 -4.839844 167.960938 2.558594 168.425781 2.855469 C 168.886719 3.152344 173.898438 -3.679688 174.425781 -4.496094 C 174.433594 -4.511719 174.441406 -4.53125 174.449219 -4.546875 C 174.566406 -4.730469 174.6875 -4.910156 174.804688 -5.09375 C 175.777344 -6.605469 176.75 -8.117188 177.71875 -9.628906 C 177.71875 -9.628906 177.714844 -9.632812 177.714844 -9.632812 C 177.867188 -9.867188 178.019531 -10.105469 178.171875 -10.34375 C 178.1875 -10.363281 178.199219 -10.378906 178.210938 -10.394531 C 178.769531 -11.261719 183.25 -19.207031 182.789062 -19.503906 C 182.324219 -19.804688 176.964844 -12.421875 176.40625 -11.550781 Z M 176.40625 -11.550781 " fill-opacity="1" fill-rule="nonzero"/><path fill="#ffcc00" d="M 123.375 21.445312 L 123.886719 22.84375 L 125.378906 22.898438 L 124.203125 23.816406 L 124.613281 25.246094 L 123.375 24.414062 L 122.136719 25.246094 L 122.550781 23.816406 L 121.375 22.898438 L 122.863281 22.84375 Z M 123.375 21.445312 " fill-opacity="1" fill-rule="evenodd"/><path fill="#ffcc00" d="M 123.429688 38.789062 L 123.875 40.015625 L 125.179688 40.058594 L 124.152344 40.863281 L 124.511719 42.117188 L 123.429688 41.386719 L 122.347656 42.117188 L 122.703125 40.863281 L 121.675781 40.058594 L 122.980469 40.015625 Z M 123.429688 38.789062 " fill-opacity="1" fill-rule="evenodd"/><path fill="#ffcc00" d="M 148.007812 46.460938 L 148.363281 47.441406 L 149.410156 47.480469 L 148.585938 48.121094 L 148.875 49.125 L 148.007812 48.542969 L 147.140625 49.125 L 147.429688 48.121094 L 146.605469 47.480469 L 147.648438 47.441406 Z M 148.007812 46.460938 " fill-opacity="1" fill-rule="evenodd"/><path fill="#ffcc00" d="M 163.378906 45.308594 L 163.554688 45.796875 L 164.078125 45.8125 L 163.664062 46.136719 L 163.808594 46.636719 L 163.378906 46.34375 L 162.945312 46.636719 L 163.089844 46.136719 L 162.675781 45.8125 L 163.199219 45.796875 Z M 163.378906 45.308594 " fill-opacity="1" fill-rule="evenodd"/><path fill="#ffcc00" d="M 143.058594 27.226562 L 143.394531 28.136719 L 144.363281 28.171875 L 143.597656 28.769531 L 143.867188 29.699219 L 143.058594 29.15625 L 142.253906 29.699219 L 142.523438 28.769531 L 141.757812 28.171875 L 142.726562 28.136719 Z M 143.058594 27.226562 " fill-opacity="1" fill-rule="evenodd"/><path fill="#ffcc00" d="M 167.429688 17.03125 L 167.699219 17.765625 L 168.480469 17.792969 L 167.863281 18.277344 L 168.078125 19.027344 L 167.429688 18.589844 L 166.777344 19.027344 L 166.996094 18.277344 L 166.378906 17.792969 L 167.160156 17.765625 Z M 167.429688 17.03125 " fill-opacity="1" fill-rule="evenodd"/><path fill="#ffcc00" d="M 154.535156 9.253906 L 154.890625 10.230469 L 155.933594 10.269531 L 155.113281 10.910156 L 155.402344 11.914062 L 154.535156 11.328125 L 153.667969 11.914062 L 153.957031 10.910156 L 153.132812 10.269531 L 154.179688 10.230469 Z M 154.535156 9.253906 " fill-opacity="1" fill-rule="evenodd"/><path fill="#ffcc00" d="M 187.21875 11.667969 L 187.664062 12.894531 L 188.972656 12.941406 L 187.941406 13.742188 L 188.304688 14.996094 L 187.21875 14.269531 L 186.136719 14.996094 L 186.496094 13.742188 L 185.46875 12.941406 L 186.773438 12.894531 Z M 187.21875 11.667969 " fill-opacity="1" fill-rule="evenodd"/><path fill="#ffcc00" d="M 146.21875 -0.207031 L 146.601562 0.84375 L 147.71875 0.878906 L 146.835938 1.566406 L 147.148438 2.640625 L 146.21875 2.019531 L 145.292969 2.640625 L 145.597656 1.566406 L 144.71875 0.878906 L 145.835938 0.84375 Z M 146.21875 -0.207031 " fill-opacity="1" fill-rule="evenodd"/><g clip-path="url(#b138ba907a)"><g clip-path="url(#3e0182a678)"><g clip-path="url(#18ca0e61f4)"><g clip-path="url(#f58e00db2f)"><path fill="#ffcc00" d="M -8.984375 155.964844 C -8.957031 155.984375 -8.925781 155.996094 -8.898438 156.011719 C -8.492188 156.246094 -8.089844 156.476562 -7.6875 156.707031 C -7.6875 156.707031 -7.6875 156.707031 -7.6875 156.710938 C -5.125 158.179688 -2.5625 159.648438 0 161.117188 C 0.00390625 161.113281 0.00390625 161.113281 0.00390625 161.113281 C 0.3125 161.289062 0.621094 161.46875 0.933594 161.644531 C 0.957031 161.660156 0.980469 161.675781 1.007812 161.691406 C 2.324219 162.445312 14.730469 168.917969 15.023438 168.402344 C 15.316406 167.890625 3.464844 160.457031 2.148438 159.703125 C 2.121094 159.6875 2.097656 159.675781 2.066406 159.660156 C 1.757812 159.484375 1.449219 159.308594 1.140625 159.128906 C 1.140625 159.128906 1.140625 159.125 1.144531 159.121094 C -1.417969 157.652344 -3.980469 156.183594 -6.546875 154.714844 C -6.546875 154.71875 -6.546875 154.722656 -6.550781 154.722656 C -6.953125 154.492188 -7.355469 154.261719 -7.761719 154.03125 C -7.785156 154.011719 -7.816406 153.992188 -7.84375 153.976562 C -9.253906 153.167969 -22.582031 146.167969 -22.878906 146.683594 C -23.171875 147.199219 -10.394531 155.160156 -8.984375 155.964844 Z M -8.984375 155.964844 " fill-opacity="1" fill-rule="nonzero"/></g></g></g></g><g clip-path="url(#7237400dcd)"><g clip-path="url(#4cf4cdc736)"><g clip-path="url(#d5ef4d6025)"><g clip-path="url(#3ea630b6ae)"><path fill="#ffcc00" d="M 7.753906 155.132812 C 7.765625 155.140625 7.777344 155.148438 7.789062 155.15625 C 7.933594 155.277344 8.082031 155.398438 8.230469 155.519531 C 8.230469 155.519531 8.226562 155.519531 8.226562 155.519531 C 9.164062 156.292969 10.097656 157.058594 11.03125 157.828125 C 11.035156 157.828125 11.035156 157.828125 11.035156 157.824219 C 11.148438 157.917969 11.261719 158.011719 11.375 158.105469 C 11.382812 158.113281 11.390625 158.121094 11.402344 158.132812 C 11.957031 158.589844 16.667969 161.726562 17.035156 161.277344 C 17.402344 160.832031 13.414062 156.816406 12.859375 156.359375 C 12.851562 156.351562 12.835938 156.34375 12.828125 156.339844 C 12.714844 156.246094 12.601562 156.152344 12.488281 156.0625 C 12.488281 156.058594 12.488281 156.054688 12.488281 156.054688 C 11.554688 155.285156 10.621094 154.519531 9.6875 153.75 C 9.683594 153.75 9.683594 153.75 9.679688 153.753906 C 9.535156 153.632812 9.386719 153.511719 9.238281 153.390625 C 9.234375 153.378906 9.222656 153.367188 9.210938 153.363281 C 8.625 152.875 3.574219 149.457031 3.207031 149.90625 C 2.835938 150.355469 7.167969 154.648438 7.753906 155.132812 Z M 7.753906 155.132812 " fill-opacity="1" fill-rule="nonzero"/></g></g></g></g><g clip-path="url(#81d479285c)"><g clip-path="url(#1725000070)"><g clip-path="url(#7c17815e0f)"><g clip-path="url(#8527545e23)"><path fill="#ffcc00" d="M 27.914062 139.472656 C 27.910156 139.496094 27.910156 139.523438 27.910156 139.546875 C 27.871094 139.902344 27.828125 140.253906 27.789062 140.613281 C 27.789062 140.609375 27.789062 140.609375 27.789062 140.609375 C 27.53125 142.859375 27.277344 145.105469 27.027344 147.351562 C 27 147.625 26.96875 147.894531 26.9375 148.167969 C 26.933594 148.1875 26.929688 148.210938 26.925781 148.234375 C 26.792969 149.421875 26.148438 160.082031 26.734375 160.148438 C 27.324219 160.214844 29.070312 149.675781 29.203125 148.492188 C 29.207031 148.46875 29.207031 148.445312 29.207031 148.421875 C 29.238281 148.152344 29.269531 147.878906 29.300781 147.609375 C 29.304688 147.609375 29.304688 147.605469 29.308594 147.609375 C 29.5625 145.363281 29.8125 143.113281 30.066406 140.867188 C 30.066406 140.867188 30.0625 140.867188 30.0625 140.867188 C 30.097656 140.515625 30.140625 140.160156 30.179688 139.804688 C 30.1875 139.78125 30.191406 139.753906 30.195312 139.730469 C 30.335938 138.464844 31.070312 126.988281 30.484375 126.921875 C 29.898438 126.851562 28.058594 138.210938 27.914062 139.472656 Z M 27.914062 139.472656 " fill-opacity="1" fill-rule="nonzero"/></g></g></g></g><g clip-path="url(#18a3b41ef8)"><g clip-path="url(#d8a3667d74)"><g clip-path="url(#9dd18fbf13)"><g clip-path="url(#6242e89330)"><path fill="#ffcc00" d="M 35.726562 150.730469 C 35.722656 150.738281 35.722656 150.75 35.722656 150.757812 C 35.695312 150.894531 35.667969 151.027344 35.640625 151.160156 C 35.640625 151.160156 35.640625 151.160156 35.636719 151.160156 C 35.460938 152.011719 35.289062 152.863281 35.117188 153.710938 C 35.117188 153.710938 35.117188 153.710938 35.117188 153.714844 C 35.09375 153.816406 35.074219 153.917969 35.054688 154.019531 C 35.050781 154.03125 35.046875 154.039062 35.046875 154.046875 C 34.929688 154.617188 34.695312 158.625 35.253906 158.738281 C 35.8125 158.855469 37.175781 155.074219 37.292969 154.507812 C 37.296875 154.5 37.292969 154.492188 37.292969 154.480469 C 37.316406 154.378906 37.335938 154.273438 37.359375 154.171875 C 37.359375 154.171875 37.359375 154.171875 37.363281 154.175781 C 37.539062 153.320312 37.710938 152.46875 37.886719 151.621094 C 37.886719 151.621094 37.882812 151.621094 37.878906 151.621094 C 37.90625 151.488281 37.933594 151.351562 37.960938 151.21875 C 37.96875 151.210938 37.972656 151.203125 37.972656 151.1875 C 38.09375 150.597656 38.394531 146.277344 37.835938 146.160156 C 37.273438 146.042969 35.847656 150.136719 35.726562 150.730469 Z M 35.726562 150.730469 " fill-opacity="1" fill-rule="nonzero"/></g></g></g></g><g clip-path="url(#71f4a6873b)"><g clip-path="url(#6262700f52)"><g clip-path="url(#49061b5d66)"><g clip-path="url(#3fb9740d35)"><path fill="#ffcc00" d="M 49.773438 141.230469 C 49.765625 141.257812 49.757812 141.28125 49.746094 141.308594 C 49.597656 141.664062 49.453125 142.023438 49.300781 142.378906 C 48.359375 144.644531 47.417969 146.914062 46.484375 149.179688 C 46.371094 149.453125 46.257812 149.726562 46.140625 150.003906 C 46.132812 150.023438 46.121094 150.046875 46.113281 150.070312 C 45.621094 151.253906 41.699219 162.175781 42.242188 162.402344 C 42.789062 162.625 47.742188 152.132812 48.230469 150.949219 C 48.242188 150.925781 48.25 150.902344 48.253906 150.878906 C 48.371094 150.605469 48.480469 150.328125 48.597656 150.054688 C 48.597656 150.054688 48.601562 150.054688 48.601562 150.054688 C 49.542969 147.789062 50.480469 145.523438 51.421875 143.257812 C 51.417969 143.257812 51.417969 143.253906 51.414062 143.253906 C 51.5625 142.898438 51.710938 142.542969 51.859375 142.183594 C 51.875 142.160156 51.886719 142.132812 51.894531 142.109375 C 52.417969 140.84375 56.683594 129.105469 56.136719 128.878906 C 55.589844 128.652344 50.300781 139.964844 49.773438 141.230469 Z M 49.773438 141.230469 " fill-opacity="1" fill-rule="nonzero"/></g></g></g></g><g clip-path="url(#6e58bb793c)"><g clip-path="url(#280cef8348)"><g clip-path="url(#64e16fb402)"><g clip-path="url(#0e9be691b9)"><path fill="#ffcc00" d="M 73.480469 151.25 C 73.449219 151.273438 73.417969 151.289062 73.386719 151.3125 C 72.953125 151.585938 72.523438 151.863281 72.09375 152.136719 C 72.09375 152.136719 72.09375 152.136719 72.089844 152.136719 C 69.355469 153.878906 66.613281 155.625 63.875 157.371094 C 63.875 157.375 63.875 157.375 63.875 157.375 C 63.542969 157.585938 63.210938 157.796875 62.882812 158.007812 C 62.855469 158.027344 62.824219 158.042969 62.796875 158.058594 C 61.398438 158.949219 48.726562 167.683594 49.042969 168.183594 C 49.363281 168.683594 62.632812 160.882812 64.027344 159.996094 C 64.058594 159.972656 64.085938 159.953125 64.113281 159.933594 C 64.441406 159.726562 64.773438 159.515625 65.105469 159.304688 C 65.105469 159.304688 65.105469 159.308594 65.109375 159.308594 C 67.847656 157.5625 70.585938 155.816406 73.324219 154.070312 C 73.324219 154.070312 73.324219 154.066406 73.324219 154.066406 C 73.753906 153.792969 74.183594 153.515625 74.617188 153.238281 C 74.648438 153.222656 74.683594 153.207031 74.714844 153.183594 C 76.210938 152.234375 89.871094 142.867188 89.554688 142.367188 C 89.230469 141.867188 74.972656 150.296875 73.480469 151.25 Z M 73.480469 151.25 " fill-opacity="1" fill-rule="nonzero"/></g></g></g></g><g clip-path="url(#96d5dfd526)"><g clip-path="url(#45ebb0e87a)"><g clip-path="url(#5b10d9d132)"><g clip-path="url(#338412d978)"><path fill="#ffcc00" d="M 58.714844 171.289062 C 58.707031 171.289062 58.699219 171.292969 58.695312 171.296875 C 58.582031 171.339844 58.472656 171.382812 58.359375 171.417969 C 58.359375 171.417969 58.359375 171.417969 58.359375 171.414062 C 57.65625 171.671875 56.953125 171.929688 56.25 172.1875 C 56.25 172.1875 56.246094 172.191406 56.25 172.191406 C 56.164062 172.222656 56.078125 172.253906 55.992188 172.285156 C 55.984375 172.285156 55.976562 172.289062 55.96875 172.289062 C 55.46875 172.472656 52.476562 174.1875 52.671875 174.71875 C 52.867188 175.246094 56.261719 174.625 56.757812 174.445312 C 56.765625 174.441406 56.773438 174.4375 56.777344 174.433594 C 56.863281 174.398438 56.949219 174.371094 57.03125 174.339844 C 57.035156 174.339844 57.035156 174.34375 57.035156 174.34375 C 57.742188 174.085938 58.445312 173.828125 59.144531 173.574219 C 59.148438 173.570312 59.144531 173.570312 59.148438 173.566406 C 59.253906 173.527344 59.367188 173.484375 59.480469 173.445312 C 59.484375 173.445312 59.496094 173.445312 59.503906 173.441406 C 60.023438 173.25 63.273438 171.441406 63.082031 170.910156 C 62.886719 170.378906 59.238281 171.097656 58.714844 171.289062 Z M 58.714844 171.289062 " fill-opacity="1" fill-rule="nonzero"/></g></g></g></g><g clip-path="url(#148cd5a2e8)"><g clip-path="url(#6a6ac8f315)"><g clip-path="url(#1a65b7c7fd)"><g clip-path="url(#03456d6114)"><path fill="#ffcc00" d="M 71 186.113281 C 70.972656 186.113281 70.945312 186.109375 70.917969 186.105469 C 70.550781 186.0625 70.183594 186.015625 69.820312 185.972656 C 69.820312 185.972656 69.820312 185.96875 69.820312 185.96875 C 67.492188 185.675781 65.167969 185.386719 62.84375 185.097656 C 62.839844 185.101562 62.839844 185.101562 62.839844 185.101562 C 62.558594 185.066406 62.277344 185.03125 61.996094 184.996094 C 61.972656 184.992188 61.949219 184.988281 61.925781 184.984375 C 60.703125 184.832031 49.652344 184.015625 49.578125 184.601562 C 49.507812 185.1875 60.421875 187.109375 61.640625 187.261719 C 61.667969 187.261719 61.6875 187.265625 61.714844 187.265625 C 61.996094 187.300781 62.277344 187.335938 62.558594 187.367188 C 62.558594 187.371094 62.558594 187.375 62.558594 187.375 C 64.882812 187.664062 67.210938 187.957031 69.535156 188.246094 C 69.535156 188.242188 69.539062 188.242188 69.539062 188.242188 C 69.902344 188.285156 70.269531 188.332031 70.636719 188.375 C 70.660156 188.382812 70.6875 188.386719 70.714844 188.390625 C 72.015625 188.550781 83.910156 189.472656 83.984375 188.886719 C 84.054688 188.300781 72.300781 186.277344 71 186.113281 Z M 71 186.113281 " fill-opacity="1" fill-rule="nonzero"/></g></g></g></g><g clip-path="url(#0086b20620)"><g clip-path="url(#48240692c5)"><g clip-path="url(#b2514fd984)"><g clip-path="url(#c699bc2703)"><path fill="#ffcc00" d="M 56.683594 192.878906 C 56.671875 192.871094 56.660156 192.863281 56.648438 192.859375 C 56.507812 192.777344 56.363281 192.691406 56.222656 192.605469 C 56.222656 192.601562 56.222656 192.601562 56.222656 192.601562 C 55.316406 192.058594 54.410156 191.515625 53.503906 190.972656 C 53.503906 190.976562 53.503906 190.976562 53.503906 190.976562 C 53.390625 190.910156 53.285156 190.847656 53.175781 190.78125 C 53.167969 190.773438 53.15625 190.765625 53.148438 190.757812 C 52.585938 190.425781 48.101562 188.402344 47.804688 188.898438 C 47.507812 189.394531 51.410156 192.394531 51.96875 192.726562 C 51.980469 192.734375 51.988281 192.738281 52 192.742188 C 52.109375 192.808594 52.21875 192.871094 52.328125 192.9375 C 52.328125 192.941406 52.328125 192.941406 52.328125 192.941406 C 53.234375 193.484375 54.136719 194.03125 55.042969 194.574219 C 55.046875 194.570312 55.046875 194.566406 55.050781 194.566406 C 55.191406 194.652344 55.332031 194.738281 55.476562 194.824219 C 55.484375 194.832031 55.492188 194.839844 55.503906 194.84375 C 56.097656 195.199219 60.910156 197.417969 61.207031 196.921875 C 61.503906 196.425781 57.273438 193.230469 56.683594 192.878906 Z M 56.683594 192.878906 " fill-opacity="1" fill-rule="nonzero"/></g></g></g></g><g clip-path="url(#377cb26509)"><g clip-path="url(#8998107c50)"><g clip-path="url(#713bf87324)"><g clip-path="url(#80e9bf4317)"><path fill="#ffcc00" d="M 52.824219 214.570312 C 52.808594 214.542969 52.792969 214.515625 52.78125 214.492188 C 52.609375 214.125 52.441406 213.761719 52.269531 213.398438 C 52.269531 213.398438 52.269531 213.398438 52.273438 213.394531 C 51.1875 211.082031 50.101562 208.769531 49.015625 206.453125 C 49.015625 206.453125 49.015625 206.453125 49.015625 206.457031 C 48.882812 206.175781 48.75 205.894531 48.621094 205.617188 C 48.613281 205.59375 48.601562 205.566406 48.589844 205.542969 C 48.023438 204.339844 42.394531 193.640625 41.859375 193.890625 C 41.324219 194.144531 45.949219 205.316406 46.511719 206.515625 C 46.523438 206.539062 46.535156 206.5625 46.550781 206.589844 C 46.679688 206.867188 46.8125 207.148438 46.945312 207.425781 C 46.941406 207.425781 46.941406 207.425781 46.9375 207.429688 C 48.023438 209.742188 49.109375 212.058594 50.191406 214.371094 C 50.195312 214.371094 50.199219 214.367188 50.199219 214.371094 C 50.371094 214.734375 50.539062 215.097656 50.714844 215.460938 C 50.722656 215.488281 50.734375 215.519531 50.746094 215.542969 C 51.351562 216.832031 57.371094 228.367188 57.90625 228.113281 C 58.445312 227.863281 53.425781 215.855469 52.824219 214.570312 Z M 52.824219 214.570312 " fill-opacity="1" fill-rule="nonzero"/></g></g></g></g><g clip-path="url(#8e5d09c7f1)"><g clip-path="url(#760ab4edc2)"><g clip-path="url(#6dd6d5b1bc)"><g clip-path="url(#eeb14c82c6)"><path fill="#ffcc00" d="M 36.96875 205.132812 C 36.96875 205.121094 36.964844 205.113281 36.960938 205.101562 C 36.953125 204.96875 36.941406 204.835938 36.929688 204.703125 C 36.929688 204.703125 36.933594 204.703125 36.933594 204.703125 C 36.863281 203.851562 36.792969 203 36.726562 202.148438 C 36.726562 202.148438 36.722656 202.152344 36.722656 202.152344 C 36.714844 202.046875 36.707031 201.945312 36.699219 201.839844 C 36.699219 201.832031 36.699219 201.824219 36.699219 201.8125 C 36.652344 201.242188 35.761719 197.398438 35.195312 197.445312 C 34.628906 197.492188 34.367188 201.429688 34.410156 202 C 34.414062 202.007812 34.417969 202.015625 34.417969 202.023438 C 34.429688 202.128906 34.4375 202.230469 34.441406 202.335938 C 34.441406 202.335938 34.4375 202.335938 34.4375 202.335938 C 34.507812 203.1875 34.578125 204.035156 34.644531 204.886719 C 34.648438 204.890625 34.648438 204.886719 34.652344 204.886719 C 34.664062 205.023438 34.671875 205.152344 34.683594 205.289062 C 34.679688 205.300781 34.679688 205.308594 34.679688 205.320312 C 34.730469 205.917969 35.644531 210.074219 36.214844 210.027344 C 36.785156 209.980469 37.015625 205.730469 36.96875 205.132812 Z M 36.96875 205.132812 " fill-opacity="1" fill-rule="nonzero"/></g></g></g></g><g clip-path="url(#7db1c6751e)"><g clip-path="url(#24e505d402)"><g clip-path="url(#b81ca7e8d3)"><g clip-path="url(#f111b1b5e4)"><path fill="#ffcc00" d="M 18.300781 216.921875 C 18.316406 216.898438 18.324219 216.875 18.339844 216.847656 C 18.523438 216.519531 18.703125 216.1875 18.890625 215.859375 C 18.890625 215.859375 18.890625 215.859375 18.890625 215.863281 C 20.054688 213.769531 21.21875 211.679688 22.382812 209.585938 C 22.382812 209.585938 22.378906 209.585938 22.378906 209.585938 C 22.519531 209.335938 22.660156 209.078125 22.800781 208.828125 C 22.816406 208.804688 22.828125 208.785156 22.839844 208.765625 C 23.449219 207.667969 28.460938 197.523438 27.945312 197.234375 C 27.429688 196.945312 21.445312 206.554688 20.835938 207.648438 C 20.824219 207.667969 20.8125 207.691406 20.804688 207.714844 C 20.664062 207.96875 20.523438 208.222656 20.382812 208.472656 C 20.378906 208.472656 20.378906 208.472656 20.378906 208.472656 C 19.210938 210.5625 18.046875 212.65625 16.886719 214.746094 C 16.886719 214.746094 16.890625 214.746094 16.890625 214.75 C 16.707031 215.078125 16.523438 215.40625 16.34375 215.738281 C 16.324219 215.761719 16.308594 215.785156 16.296875 215.804688 C 15.644531 216.976562 10.214844 227.882812 10.730469 228.167969 C 11.25 228.457031 17.652344 218.089844 18.300781 216.921875 Z M 18.300781 216.921875 " fill-opacity="1" fill-rule="nonzero"/></g></g></g></g><g clip-path="url(#c0a4439e7e)"><g clip-path="url(#ffb39f32b3)"><g clip-path="url(#27d57e3d4e)"><g clip-path="url(#a45802d4ca)"><path fill="#ffcc00" d="M -4.039062 214.285156 C -4.007812 214.257812 -3.976562 214.230469 -3.945312 214.203125 C -3.5 213.839844 -3.058594 213.472656 -2.613281 213.109375 C -2.613281 213.109375 -2.613281 213.113281 -2.613281 213.113281 C 0.210938 210.800781 3.03125 208.488281 5.851562 206.175781 C 5.847656 206.171875 5.847656 206.171875 5.847656 206.171875 C 6.191406 205.894531 6.53125 205.613281 6.871094 205.335938 C 6.902344 205.3125 6.933594 205.285156 6.960938 205.261719 C 8.390625 204.09375 21.40625 192.703125 21.03125 192.246094 C 20.65625 191.785156 6.933594 202.320312 5.507812 203.488281 C 5.476562 203.515625 5.449219 203.539062 5.421875 203.566406 C 5.082031 203.84375 4.738281 204.125 4.398438 204.402344 C 4.394531 204.402344 4.394531 204.402344 4.394531 204.398438 C 1.574219 206.710938 -1.246094 209.027344 -4.070312 211.339844 C -4.066406 211.339844 -4.0625 211.34375 -4.0625 211.34375 C -4.507812 211.707031 -4.953125 212.070312 -5.394531 212.433594 C -5.429688 212.460938 -5.460938 212.484375 -5.496094 212.511719 C -7.027344 213.765625 -21.058594 225.992188 -20.683594 226.449219 C -20.308594 226.910156 -5.570312 215.539062 -4.039062 214.285156 Z M -4.039062 214.285156 " fill-opacity="1" fill-rule="nonzero"/></g></g></g></g><g clip-path="url(#984b975b7a)"><g clip-path="url(#53ee476943)"><g clip-path="url(#05ff49ac3e)"><g clip-path="url(#d98fd9ba39)"><path fill="#ffcc00" d="M -15.515625 185.886719 C -15.480469 185.882812 -15.445312 185.878906 -15.414062 185.871094 C -14.949219 185.820312 -14.484375 185.761719 -14.019531 185.710938 C -14.019531 185.710938 -14.015625 185.710938 -14.015625 185.710938 C -11.058594 185.371094 -8.101562 185.023438 -5.144531 184.679688 C -5.144531 184.675781 -5.144531 184.675781 -5.144531 184.675781 C -4.789062 184.632812 -4.429688 184.59375 -4.074219 184.550781 C -4.042969 184.546875 -4.011719 184.546875 -3.980469 184.542969 C -2.464844 184.367188 11.464844 182.1875 11.398438 181.597656 C 11.328125 181.007812 -2.730469 182.089844 -4.246094 182.265625 C -4.277344 182.269531 -4.308594 182.273438 -4.339844 182.28125 C -4.695312 182.324219 -5.054688 182.363281 -5.410156 182.40625 C -5.410156 182.402344 -5.410156 182.398438 -5.410156 182.398438 C -8.367188 182.746094 -11.324219 183.089844 -14.28125 183.433594 C -14.28125 183.433594 -14.28125 183.4375 -14.28125 183.4375 C -14.746094 183.492188 -15.210938 183.546875 -15.679688 183.601562 C -15.710938 183.601562 -15.746094 183.605469 -15.78125 183.609375 C -17.402344 183.796875 -32.402344 186.101562 -32.332031 186.691406 C -32.261719 187.28125 -17.140625 186.078125 -15.515625 185.886719 Z M -15.515625 185.886719 " fill-opacity="1" fill-rule="nonzero"/></g></g></g></g><g clip-path="url(#9d43bd064b)"><g clip-path="url(#6c01ba4e78)"><g clip-path="url(#4de76193b6)"><g clip-path="url(#cbbd867b73)"><path fill="#ffcc00" d="M -1.328125 197.425781 C -1.316406 197.417969 -1.300781 197.410156 -1.289062 197.398438 C -1.101562 197.292969 -0.914062 197.183594 -0.726562 197.074219 C -0.726562 197.078125 -0.726562 197.078125 -0.726562 197.078125 C 0.464844 196.394531 1.652344 195.710938 2.839844 195.027344 C 2.839844 195.027344 2.839844 195.027344 2.835938 195.027344 C 2.984375 194.945312 3.125 194.863281 3.269531 194.777344 C 3.28125 194.773438 3.296875 194.765625 3.308594 194.761719 C 3.992188 194.367188 9.261719 190.691406 8.972656 190.183594 C 8.679688 189.679688 2.855469 192.375 2.164062 192.773438 C 2.152344 192.777344 2.140625 192.789062 2.132812 192.796875 C 1.984375 192.878906 1.84375 192.964844 1.699219 193.046875 C 1.699219 193.042969 1.695312 193.039062 1.695312 193.039062 C 0.503906 193.722656 -0.679688 194.40625 -1.871094 195.089844 C -1.871094 195.089844 -1.867188 195.09375 -1.867188 195.09375 C -2.054688 195.203125 -2.242188 195.308594 -2.429688 195.417969 C -2.441406 195.421875 -2.457031 195.429688 -2.472656 195.4375 C -3.195312 195.851562 -8.898438 199.78125 -8.605469 200.285156 C -8.316406 200.792969 -2.054688 197.84375 -1.328125 197.425781 Z M -1.328125 197.425781 " fill-opacity="1" fill-rule="nonzero"/></g></g></g></g><g clip-path="url(#788cc977b6)"><g clip-path="url(#f78205a028)"><g clip-path="url(#967de07298)"><g clip-path="url(#5cdf4809bf)"><path fill="#ffcc00" d="M 9.363281 137.78125 C 9.371094 137.804688 9.382812 137.820312 9.394531 137.839844 C 9.535156 138.105469 9.671875 138.375 9.8125 138.644531 C 9.8125 138.644531 9.8125 138.644531 9.808594 138.648438 C 10.699219 140.351562 11.585938 142.054688 12.472656 143.761719 C 12.476562 143.761719 12.476562 143.761719 12.476562 143.761719 C 12.585938 143.964844 12.691406 144.171875 12.800781 144.378906 C 12.808594 144.398438 12.816406 144.414062 12.828125 144.433594 C 13.304688 145.351562 17.980469 153.121094 18.503906 152.847656 C 19.023438 152.578125 15.339844 144.296875 14.863281 143.375 C 14.851562 143.355469 14.839844 143.339844 14.828125 143.320312 C 14.71875 143.113281 14.613281 142.910156 14.507812 142.703125 C 14.507812 142.703125 14.511719 142.703125 14.511719 142.703125 C 13.621094 140.996094 12.734375 139.289062 11.84375 137.585938 C 11.84375 137.585938 11.839844 137.585938 11.839844 137.585938 C 11.703125 137.320312 11.5625 137.054688 11.421875 136.785156 C 11.414062 136.761719 11.40625 136.742188 11.394531 136.722656 C 10.886719 135.746094 5.886719 127.359375 5.367188 127.632812 C 4.839844 127.902344 8.851562 136.800781 9.363281 137.78125 Z M 9.363281 137.78125 " fill-opacity="1" fill-rule="nonzero"/></g></g></g></g><g clip-path="url(#c9f486e1fc)"><g clip-path="url(#ca55810612)"><g clip-path="url(#ae76d5e6ff)"><g clip-path="url(#f628c8cbe1)"><path fill="#ffcc00" d="M 11.832031 204.515625 L 13.402344 204.785156 L 14.242188 203.433594 L 14.472656 205.011719 L 16.019531 205.390625 L 14.585938 206.097656 L 14.703125 207.6875 L 13.59375 206.542969 L 12.117188 207.144531 L 12.859375 205.734375 Z M 11.832031 204.515625 " fill-opacity="1" fill-rule="evenodd"/></g></g></g></g><g clip-path="url(#1c3948196d)"><g clip-path="url(#37d3f9366c)"><g clip-path="url(#f7ffe67de3)"><g clip-path="url(#bb915e5039)"><path fill="#ffcc00" d="M 27.964844 213.695312 L 29.339844 213.9375 L 30.078125 212.75 L 30.277344 214.128906 L 31.632812 214.460938 L 30.378906 215.082031 L 30.480469 216.46875 L 29.507812 215.472656 L 28.214844 215.996094 L 28.867188 214.761719 Z M 27.964844 213.695312 " fill-opacity="1" fill-rule="evenodd"/></g></g></g></g><g clip-path="url(#5d09043bd6)"><g clip-path="url(#8237e43d8b)"><g clip-path="url(#2a502e55af)"><g clip-path="url(#8e5fc97655)"><path fill="#ffcc00" d="M 48.152344 194.988281 L 49.253906 195.179688 L 49.84375 194.230469 L 50 195.332031 L 51.085938 195.601562 L 50.082031 196.09375 L 50.167969 197.207031 L 49.386719 196.40625 L 48.351562 196.828125 L 48.875 195.839844 Z M 48.152344 194.988281 " fill-opacity="1" fill-rule="evenodd"/></g></g></g></g><g clip-path="url(#b3a369f0ab)"><g clip-path="url(#ad4db2d6a9)"><g clip-path="url(#c4d42d72ba)"><g clip-path="url(#7024f049af)"><path fill="#ffcc00" d="M 55.246094 180.121094 L 55.792969 180.214844 L 56.089844 179.742188 L 56.171875 180.292969 L 56.710938 180.425781 L 56.210938 180.671875 L 56.253906 181.230469 L 55.863281 180.828125 L 55.34375 181.042969 L 55.605469 180.546875 Z M 55.246094 180.121094 " fill-opacity="1" fill-rule="evenodd"/></g></g></g></g><g clip-path="url(#86a2de0846)"><g clip-path="url(#311b2af05f)"><g clip-path="url(#14d39fdb75)"><g clip-path="url(#46b2bedcaa)"><path fill="#ffcc00" d="M 27.660156 189.339844 L 28.679688 189.515625 L 29.226562 188.632812 L 29.375 189.664062 L 30.382812 189.90625 L 29.453125 190.367188 L 29.527344 191.398438 L 28.804688 190.65625 L 27.84375 191.046875 L 28.328125 190.128906 Z M 27.660156 189.339844 " fill-opacity="1" fill-rule="evenodd"/></g></g></g></g><g clip-path="url(#d5f72e39cb)"><g clip-path="url(#df4184b0a8)"><g clip-path="url(#51d23ea149)"><g clip-path="url(#426adbae7d)"><path fill="#ffcc00" d="M 31.136719 161.3125 L 31.964844 161.457031 L 32.402344 160.746094 L 32.523438 161.574219 L 33.335938 161.773438 L 32.585938 162.144531 L 32.648438 162.980469 L 32.0625 162.378906 L 31.289062 162.695312 L 31.679688 161.957031 Z M 31.136719 161.3125 " fill-opacity="1" fill-rule="evenodd"/></g></g></g></g><g clip-path="url(#b47afb4528)"><g clip-path="url(#600f48be12)"><g clip-path="url(#96923ab2a0)"><g clip-path="url(#26e79124e8)"><path fill="#ffcc00" d="M 17.0625 169.132812 L 18.160156 169.324219 L 18.75 168.375 L 18.910156 169.480469 L 19.992188 169.746094 L 18.992188 170.238281 L 19.074219 171.351562 L 18.296875 170.550781 L 17.261719 170.976562 L 17.78125 169.984375 Z M 17.0625 169.132812 " fill-opacity="1" fill-rule="evenodd"/></g></g></g></g><g clip-path="url(#ed198a23ba)"><g clip-path="url(#f889b83d96)"><g clip-path="url(#341581c70c)"><g clip-path="url(#42a15a26c3)"><path fill="#ffcc00" d="M 36.671875 140.109375 L 38.046875 140.347656 L 38.785156 139.164062 L 38.984375 140.542969 L 40.339844 140.875 L 39.085938 141.492188 L 39.1875 142.886719 L 38.214844 141.886719 L 36.921875 142.410156 L 37.574219 141.175781 Z M 36.671875 140.109375 " fill-opacity="1" fill-rule="evenodd"/></g></g></g></g><g clip-path="url(#73956c8e38)"><g clip-path="url(#9d626c0c3a)"><g clip-path="url(#a5ccd90bd3)"><g clip-path="url(#f9a05330de)"><path fill="#ffcc00" d="M 3.855469 171.8125 L 5.035156 172.015625 L 5.664062 171 L 5.835938 172.179688 L 7 172.464844 L 5.925781 172.996094 L 6.011719 174.1875 L 5.175781 173.332031 L 4.070312 173.78125 L 4.628906 172.722656 Z M 3.855469 171.8125 " fill-opacity="1" fill-rule="evenodd"/></g></g></g></g><g clip-path="url(#9be70ebabf)"><g clip-path="url(#99a5ddf710)"><g clip-path="url(#0d98b16926)"><g clip-path="url(#68cafd07c7)"><path fill="#ffcc00" d="M 3.566406 143.570312 L 4.472656 143.726562 L 4.953125 142.949219 L 5.085938 143.855469 L 5.976562 144.078125 L 5.15625 144.480469 L 5.21875 145.398438 L 4.578125 144.738281 L 3.730469 145.082031 L 4.160156 144.273438 Z M 3.566406 143.570312 " fill-opacity="1" fill-rule="evenodd"/></g></g></g></g></svg>